# xmcd
#
# Track frame offsets:
# 150
# 15363
# 30943
# 46092
# 60722
# 73690
# 87628
# 101090
# 114760
# 128541
# 144330
# 159683
# 175024
# 194029
# 205342
# 217199
# 227804
# 240253
# 251180
# 261535
#
# Disc length: 3649 seconds
#
#
# Revision: 0
# Processed by: cddbd v1.5.2PL0 Copyright (c) Steve Scherf et al.
# Submitted via: FreeRIP 2.951 
#
DISCID=1b0e3f14
DTITLE=CLAUDI ROBERTO - SUPERSUCESSOS
DYEAR=2006
DGENRE=ROMANTICO
TTITLE0=PARABEN, PARABENS, QUERIDA
TTITLE1=COMO E QUE EU POSSO SER FELIZ SEM VOCE
TTITLE2=VOCE NAO E A MESMA
TTITLE3=MUITO ALEM
TTITLE4=MEU CORAÇAO QUE TE AMAVA TANTO
TTITLE5=VOCE MARCOU DEMAIS A MINHA VIDA
TTITLE6=ENXUGUE TUAS LAGRIMAS
TTITLE7=FIM DE NOIVADO
TTITLE8=SEPARADOS
TTITLE9=ONDE ESTA VOCE
TTITLE10=NINGUEM TE AMA MAIS QUE EU
TTITLE11=QUANDO A GENTE AMA MESMO NAO ESQUECE
TTITLE12=QUANDO A ESPERANÇA VAI EMBORA
TTITLE13=ENTRE AS ILUSOES
TTITLE14=COMO AINDA TE QUERO
TTITLE15=EXEMPLO
TTITLE16=QUANDO MEU MUNDO CAIU
TTITLE17=MINHAS BARREIRAS
TTITLE18=POR AMOR
TTITLE19=SE EU TE PERCO AMOR
EXTD=
EXTT0=
EXTT1=
EXTT2=
EXTT3=
EXTT4=
EXTT5=
EXTT6=
EXTT7=
EXTT8=
EXTT9=
EXTT10=
EXTT11=
EXTT12=
EXTT13=
EXTT14=
EXTT15=
EXTT16=
EXTT17=
EXTT18=
EXTT19=
PLAYORDER=
